
<svg viewBox="0 0 20 20" fill="none" xmlns="http://www.w3.org/2000/svg">
<path d="M5.28179 12.3705C5.37945 11.5618 5.71112 11.109 6.33614 10.6449C7.23043 10.0162 8.34752 10.3718 8.34752 10.3718V8.26234C8.6191 8.2554 8.89078 8.2715 9.1594 8.31045V11.0251C9.1594 11.0251 8.04264 10.6696 7.14836 11.2985C6.52368 11.7623 6.19133 12.2154 6.094 13.0241C6.09095 13.4632 6.17336 14.0372 6.55285 14.5336C6.45902 14.4855 6.36339 14.4306 6.26594 14.3691C5.42999 13.8078 5.27772 12.9656 5.28179 12.3705ZM13.7719 4.36192C13.1567 3.6878 12.9241 3.00718 12.84 2.52905H13.6139C13.6139 2.52905 13.4596 3.78271 14.5841 5.01557L14.5997 5.03215C14.2966 4.8415 14.0187 4.61646 13.7719 4.36192ZM17.5 6.27313V8.93322C17.5 8.93322 16.5124 8.89454 15.7816 8.70862C14.7612 8.44859 14.1053 8.04977 14.1053 8.04977C14.1053 8.04977 13.6522 7.76537 13.6156 7.74554V13.2386C13.6156 13.5445 13.5318 14.3083 13.2764 14.9454C12.9431 15.7788 12.4286 16.3258 12.334 16.4376C12.334 16.4376 11.7083 17.1771 10.6044 17.675C9.60943 18.1242 8.73583 18.1129 8.4747 18.1242C8.4747 18.1242 6.96455 18.184 5.60566 17.3009C5.3118 17.1063 5.0375 16.8858 4.78632 16.6424L4.7931 16.6473C6.15233 17.5304 7.66214 17.4706 7.66214 17.4706C7.92361 17.4592 8.79721 17.4706 9.79188 17.0214C10.8947 16.5234 11.5214 15.784 11.5214 15.784C11.615 15.6722 12.1319 15.1251 12.4639 14.2914C12.7186 13.6547 12.803 12.8905 12.803 12.5847V7.09222C12.8396 7.11237 13.2924 7.39678 13.2924 7.39678C13.2924 7.39678 13.9486 7.79592 14.969 8.05562C15.7002 8.24154 16.6874 8.28022 16.6874 8.28022V6.19577C17.0252 6.27151 17.3131 6.29198 17.5 6.27313Z" fill="#EE1D52"/>
<path d="M16.6878 6.19577V8.27957C16.6878 8.27957 15.7006 8.24089 14.9694 8.05497C13.9489 7.79494 13.2927 7.39613 13.2927 7.39613C13.2927 7.39613 12.84 7.11172 12.8034 7.09157V12.5853C12.8034 12.8912 12.7196 13.6553 12.4642 14.2921C12.1309 15.1258 11.6164 15.6728 11.5218 15.7846C11.5218 15.7846 10.8958 16.5241 9.79223 17.022C8.79756 17.4712 7.92396 17.4599 7.66249 17.4712C7.66249 17.4712 6.15268 17.531 4.79345 16.6479L4.78666 16.643C4.64316 16.5041 4.50807 16.3574 4.38208 16.2036C3.94833 15.6748 3.68245 15.0494 3.61565 14.871C3.61553 14.8702 3.61553 14.8694 3.61565 14.8687C3.50814 14.5586 3.28228 13.8139 3.31314 13.0927C3.36774 11.8202 3.81539 11.0391 3.93375 10.8434C4.24721 10.3099 4.6549 9.83245 5.13868 9.43247C5.56559 9.08732 6.04947 8.81271 6.57049 8.61988C7.13372 8.39348 7.73685 8.27214 8.34753 8.26234V10.3718C8.34753 10.3718 7.23044 10.0175 6.33649 10.6449C5.71147 11.109 5.3798 11.5618 5.28213 12.3705C5.27806 12.9656 5.43033 13.8078 6.26561 14.3694C6.36305 14.4312 6.45869 14.486 6.55251 14.5339C6.69844 14.7236 6.87604 14.8889 7.07817 15.0231C7.89411 15.5396 8.5778 15.5756 9.45208 15.2402C10.035 15.0159 10.4739 14.5105 10.6774 13.9505C10.8052 13.6007 10.8035 13.2487 10.8035 12.8847V2.52905H12.8383C12.9224 3.00718 13.155 3.6878 13.7702 4.36192C14.017 4.61646 14.295 4.8415 14.598 5.03215C14.6876 5.12478 15.1454 5.58276 15.7331 5.86391C16.037 6.00924 16.3573 6.12059 16.6878 6.19577V6.19577Z" fill="black"/>
<path d="M2.80579 14.2231V14.2248L2.85628 14.3616C2.85048 14.3457 2.83172 14.2973 2.80579 14.2231Z" fill="#69C9D0"/>
<path d="M6.57051 8.6199C6.0495 8.81272 5.56561 9.08734 5.1387 9.43249C4.65477 9.83337 4.24718 10.3118 3.93411 10.8464C3.81576 11.0414 3.3681 11.8231 3.3135 13.0956C3.28264 13.8169 3.5085 14.5615 3.61601 14.8716C3.61589 14.8724 3.61589 14.8731 3.61601 14.8739C3.68383 15.0507 3.94869 15.6761 4.38244 16.2065C4.50844 16.3603 4.64352 16.507 4.78702 16.646C4.32723 16.3412 3.91716 15.9727 3.57023 15.5526C3.14021 15.0283 2.87501 14.4094 2.80583 14.2268C2.80574 14.2255 2.80574 14.2242 2.80583 14.2229V14.2206C2.69798 13.9108 2.47144 13.1658 2.50298 12.4436C2.55758 11.1711 3.00523 10.39 3.12359 10.1944C3.43657 9.6597 3.84417 9.18128 4.32818 8.78047C4.755 8.4352 5.23891 8.16057 5.75999 7.96788C6.08501 7.83863 6.42361 7.74328 6.76992 7.68348C7.29183 7.59616 7.82487 7.58859 8.34925 7.66105V8.26236C7.738 8.27195 7.13428 8.3933 6.57051 8.6199Z" fill="#69C9D0"/>
<path d="M12.84 2.52897H10.8052V12.8849C10.8052 13.2489 10.8052 13.6 10.679 13.9507C10.4735 14.5104 10.0364 15.0158 9.45376 15.2401C8.57914 15.5768 7.89546 15.5395 7.07985 15.023C6.87738 14.8894 6.69932 14.7246 6.55284 14.5354C7.24772 14.8907 7.86968 14.8845 8.64019 14.5881C9.22247 14.3638 9.66029 13.8584 9.86513 13.2984C9.99332 12.9486 9.99162 12.5966 9.99162 12.2329V1.875H12.8013C12.8013 1.875 12.7698 2.13243 12.84 2.52897ZM16.6877 5.6194V6.19569C16.3579 6.12039 16.0381 6.00904 15.7348 5.86383C15.1471 5.58267 14.6893 5.1247 14.5997 5.03206C14.7036 5.09744 14.8114 5.15691 14.9226 5.21018C15.6371 5.55212 16.3408 5.65418 16.6877 5.6194Z" fill="#69C9D0"/>
</svg>
